<mxfile host="app.diagrams.net" modified="2022-11-10T08:06:35.419Z" agent="5.0 (X11; Linux x86_64) AppleWebKit/537.36 (KHTML, like Gecko) Chrome/105.0.0.0 Safari/537.36" etag="ABUNQWJIWX_-wRUiRHVh" version="20.5.1" type="github">
  <diagram id="ZjQkCzTCEwSP8y3LB2HT" name="Page-1">
    <mxGraphModel dx="1210" dy="1765" grid="1" gridSize="10" guides="1" tooltips="1" connect="1" arrows="1" fold="1" page="1" pageScale="1" pageWidth="850" pageHeight="1100" math="0" shadow="0">
      <root>
        <mxCell id="0" />
        <mxCell id="1" parent="0" />
        <mxCell id="M1Dd1jra3ZKJnvtL5Lh6-6" value="Pool" style="swimlane;childLayout=stackLayout;resizeParent=1;resizeParentMax=0;startSize=20;" vertex="1" parent="1">
          <mxGeometry x="130" y="-20" width="980" height="1120" as="geometry" />
        </mxCell>
        <mxCell id="M1Dd1jra3ZKJnvtL5Lh6-7" value="staff" style="swimlane;startSize=20;" vertex="1" parent="M1Dd1jra3ZKJnvtL5Lh6-6">
          <mxGeometry y="20" width="290" height="1100" as="geometry" />
        </mxCell>
        <mxCell id="M1Dd1jra3ZKJnvtL5Lh6-15" style="edgeStyle=orthogonalEdgeStyle;rounded=0;orthogonalLoop=1;jettySize=auto;html=1;exitX=0.5;exitY=1;exitDx=0;exitDy=0;entryX=0.5;entryY=0;entryDx=0;entryDy=0;" edge="1" parent="M1Dd1jra3ZKJnvtL5Lh6-7" source="M1Dd1jra3ZKJnvtL5Lh6-4" target="M1Dd1jra3ZKJnvtL5Lh6-5">
          <mxGeometry relative="1" as="geometry" />
        </mxCell>
        <mxCell id="M1Dd1jra3ZKJnvtL5Lh6-4" value="open log page" style="rounded=1;whiteSpace=wrap;html=1;" vertex="1" parent="M1Dd1jra3ZKJnvtL5Lh6-7">
          <mxGeometry x="50" y="130" width="120" height="50" as="geometry" />
        </mxCell>
        <mxCell id="M1Dd1jra3ZKJnvtL5Lh6-10" value="" style="ellipse;html=1;shape=startState;fillColor=#000000;strokeColor=#ff0000;" vertex="1" parent="M1Dd1jra3ZKJnvtL5Lh6-7">
          <mxGeometry x="95" y="40" width="30" height="30" as="geometry" />
        </mxCell>
        <mxCell id="M1Dd1jra3ZKJnvtL5Lh6-11" value="" style="edgeStyle=orthogonalEdgeStyle;html=1;verticalAlign=bottom;endArrow=open;endSize=8;strokeColor=#ff0000;rounded=0;" edge="1" source="M1Dd1jra3ZKJnvtL5Lh6-10" parent="M1Dd1jra3ZKJnvtL5Lh6-7">
          <mxGeometry relative="1" as="geometry">
            <mxPoint x="110" y="130" as="targetPoint" />
          </mxGeometry>
        </mxCell>
        <mxCell id="M1Dd1jra3ZKJnvtL5Lh6-18" style="edgeStyle=orthogonalEdgeStyle;rounded=0;orthogonalLoop=1;jettySize=auto;html=1;exitX=0.5;exitY=1;exitDx=0;exitDy=0;entryX=0.5;entryY=0;entryDx=0;entryDy=0;" edge="1" parent="M1Dd1jra3ZKJnvtL5Lh6-7" source="M1Dd1jra3ZKJnvtL5Lh6-5" target="M1Dd1jra3ZKJnvtL5Lh6-12">
          <mxGeometry relative="1" as="geometry" />
        </mxCell>
        <mxCell id="M1Dd1jra3ZKJnvtL5Lh6-5" value="input username" style="rounded=1;whiteSpace=wrap;html=1;" vertex="1" parent="M1Dd1jra3ZKJnvtL5Lh6-7">
          <mxGeometry x="50" y="220" width="120" height="50" as="geometry" />
        </mxCell>
        <mxCell id="M1Dd1jra3ZKJnvtL5Lh6-12" value="input password" style="rounded=1;whiteSpace=wrap;html=1;" vertex="1" parent="M1Dd1jra3ZKJnvtL5Lh6-7">
          <mxGeometry x="50" y="310" width="120" height="50" as="geometry" />
        </mxCell>
        <mxCell id="M1Dd1jra3ZKJnvtL5Lh6-28" value="enter leave region" style="rounded=1;whiteSpace=wrap;html=1;" vertex="1" parent="M1Dd1jra3ZKJnvtL5Lh6-7">
          <mxGeometry x="50" y="490" width="120" height="50" as="geometry" />
        </mxCell>
        <mxCell id="M1Dd1jra3ZKJnvtL5Lh6-33" style="edgeStyle=orthogonalEdgeStyle;rounded=0;orthogonalLoop=1;jettySize=auto;html=1;exitX=0.5;exitY=1;exitDx=0;exitDy=0;entryX=0.5;entryY=0;entryDx=0;entryDy=0;" edge="1" parent="M1Dd1jra3ZKJnvtL5Lh6-7" source="M1Dd1jra3ZKJnvtL5Lh6-31" target="M1Dd1jra3ZKJnvtL5Lh6-32">
          <mxGeometry relative="1" as="geometry" />
        </mxCell>
        <mxCell id="M1Dd1jra3ZKJnvtL5Lh6-31" value="enter leave duration" style="rounded=1;whiteSpace=wrap;html=1;" vertex="1" parent="M1Dd1jra3ZKJnvtL5Lh6-7">
          <mxGeometry x="50" y="580" width="120" height="50" as="geometry" />
        </mxCell>
        <mxCell id="M1Dd1jra3ZKJnvtL5Lh6-32" value="submit leave" style="rounded=1;whiteSpace=wrap;html=1;" vertex="1" parent="M1Dd1jra3ZKJnvtL5Lh6-7">
          <mxGeometry x="50" y="660" width="120" height="50" as="geometry" />
        </mxCell>
        <mxCell id="M1Dd1jra3ZKJnvtL5Lh6-13" value="choose leave" style="rounded=1;whiteSpace=wrap;html=1;" vertex="1" parent="M1Dd1jra3ZKJnvtL5Lh6-7">
          <mxGeometry x="50" y="395" width="120" height="50" as="geometry" />
        </mxCell>
        <mxCell id="M1Dd1jra3ZKJnvtL5Lh6-29" style="edgeStyle=orthogonalEdgeStyle;rounded=0;orthogonalLoop=1;jettySize=auto;html=1;exitX=0.5;exitY=1;exitDx=0;exitDy=0;entryX=0.5;entryY=0;entryDx=0;entryDy=0;" edge="1" parent="M1Dd1jra3ZKJnvtL5Lh6-7" source="M1Dd1jra3ZKJnvtL5Lh6-13" target="M1Dd1jra3ZKJnvtL5Lh6-28">
          <mxGeometry relative="1" as="geometry" />
        </mxCell>
        <mxCell id="M1Dd1jra3ZKJnvtL5Lh6-56" value="submit leave" style="rounded=1;whiteSpace=wrap;html=1;" vertex="1" parent="M1Dd1jra3ZKJnvtL5Lh6-7">
          <mxGeometry x="65" y="800" width="120" height="50" as="geometry" />
        </mxCell>
        <mxCell id="M1Dd1jra3ZKJnvtL5Lh6-67" style="edgeStyle=orthogonalEdgeStyle;rounded=0;orthogonalLoop=1;jettySize=auto;html=1;exitX=0.5;exitY=1;exitDx=0;exitDy=0;entryX=0.5;entryY=0;entryDx=0;entryDy=0;" edge="1" parent="M1Dd1jra3ZKJnvtL5Lh6-7" source="M1Dd1jra3ZKJnvtL5Lh6-58" target="M1Dd1jra3ZKJnvtL5Lh6-59">
          <mxGeometry relative="1" as="geometry" />
        </mxCell>
        <mxCell id="M1Dd1jra3ZKJnvtL5Lh6-58" value="check status" style="rounded=1;whiteSpace=wrap;html=1;" vertex="1" parent="M1Dd1jra3ZKJnvtL5Lh6-7">
          <mxGeometry x="80" y="920" width="90" height="40" as="geometry" />
        </mxCell>
        <mxCell id="M1Dd1jra3ZKJnvtL5Lh6-79" style="edgeStyle=orthogonalEdgeStyle;rounded=0;orthogonalLoop=1;jettySize=auto;html=1;exitX=0.5;exitY=1;exitDx=0;exitDy=0;" edge="1" parent="M1Dd1jra3ZKJnvtL5Lh6-7" source="M1Dd1jra3ZKJnvtL5Lh6-59" target="M1Dd1jra3ZKJnvtL5Lh6-75">
          <mxGeometry relative="1" as="geometry" />
        </mxCell>
        <mxCell id="M1Dd1jra3ZKJnvtL5Lh6-59" value="view status" style="rounded=1;whiteSpace=wrap;html=1;" vertex="1" parent="M1Dd1jra3ZKJnvtL5Lh6-7">
          <mxGeometry x="90" y="990" width="90" height="40" as="geometry" />
        </mxCell>
        <mxCell id="M1Dd1jra3ZKJnvtL5Lh6-71" style="edgeStyle=orthogonalEdgeStyle;rounded=0;orthogonalLoop=1;jettySize=auto;html=1;exitX=0.5;exitY=1;exitDx=0;exitDy=0;entryX=0.5;entryY=0;entryDx=0;entryDy=0;" edge="1" parent="M1Dd1jra3ZKJnvtL5Lh6-7" source="M1Dd1jra3ZKJnvtL5Lh6-56" target="M1Dd1jra3ZKJnvtL5Lh6-58">
          <mxGeometry relative="1" as="geometry">
            <mxPoint x="120" y="940" as="targetPoint" />
          </mxGeometry>
        </mxCell>
        <mxCell id="M1Dd1jra3ZKJnvtL5Lh6-75" value="" style="ellipse;html=1;shape=endState;fillColor=#000000;strokeColor=#ff0000;" vertex="1" parent="M1Dd1jra3ZKJnvtL5Lh6-7">
          <mxGeometry x="120" y="1060" width="30" height="30" as="geometry" />
        </mxCell>
        <mxCell id="M1Dd1jra3ZKJnvtL5Lh6-22" style="edgeStyle=orthogonalEdgeStyle;rounded=0;orthogonalLoop=1;jettySize=auto;html=1;exitX=1;exitY=0.5;exitDx=0;exitDy=0;" edge="1" parent="M1Dd1jra3ZKJnvtL5Lh6-6" source="M1Dd1jra3ZKJnvtL5Lh6-12" target="M1Dd1jra3ZKJnvtL5Lh6-20">
          <mxGeometry relative="1" as="geometry" />
        </mxCell>
        <mxCell id="M1Dd1jra3ZKJnvtL5Lh6-42" style="edgeStyle=orthogonalEdgeStyle;rounded=0;orthogonalLoop=1;jettySize=auto;html=1;exitX=0;exitY=0.5;exitDx=0;exitDy=0;entryX=1;entryY=0.5;entryDx=0;entryDy=0;" edge="1" parent="M1Dd1jra3ZKJnvtL5Lh6-6" source="M1Dd1jra3ZKJnvtL5Lh6-23" target="M1Dd1jra3ZKJnvtL5Lh6-13">
          <mxGeometry relative="1" as="geometry" />
        </mxCell>
        <mxCell id="M1Dd1jra3ZKJnvtL5Lh6-45" style="edgeStyle=orthogonalEdgeStyle;rounded=0;orthogonalLoop=1;jettySize=auto;html=1;exitX=1;exitY=0.5;exitDx=0;exitDy=0;entryX=0;entryY=0.5;entryDx=0;entryDy=0;" edge="1" parent="M1Dd1jra3ZKJnvtL5Lh6-6" source="M1Dd1jra3ZKJnvtL5Lh6-28" target="M1Dd1jra3ZKJnvtL5Lh6-39">
          <mxGeometry relative="1" as="geometry" />
        </mxCell>
        <mxCell id="M1Dd1jra3ZKJnvtL5Lh6-46" style="edgeStyle=orthogonalEdgeStyle;rounded=0;orthogonalLoop=1;jettySize=auto;html=1;exitX=0;exitY=0.5;exitDx=0;exitDy=0;entryX=1;entryY=0.5;entryDx=0;entryDy=0;" edge="1" parent="M1Dd1jra3ZKJnvtL5Lh6-6" source="M1Dd1jra3ZKJnvtL5Lh6-43" target="M1Dd1jra3ZKJnvtL5Lh6-31">
          <mxGeometry relative="1" as="geometry" />
        </mxCell>
        <mxCell id="M1Dd1jra3ZKJnvtL5Lh6-47" style="edgeStyle=orthogonalEdgeStyle;rounded=0;orthogonalLoop=1;jettySize=auto;html=1;exitX=1;exitY=0.5;exitDx=0;exitDy=0;entryX=0;entryY=0.5;entryDx=0;entryDy=0;" edge="1" parent="M1Dd1jra3ZKJnvtL5Lh6-6" source="M1Dd1jra3ZKJnvtL5Lh6-32" target="M1Dd1jra3ZKJnvtL5Lh6-44">
          <mxGeometry relative="1" as="geometry" />
        </mxCell>
        <mxCell id="M1Dd1jra3ZKJnvtL5Lh6-57" style="edgeStyle=orthogonalEdgeStyle;rounded=0;orthogonalLoop=1;jettySize=auto;html=1;exitX=0;exitY=0.5;exitDx=0;exitDy=0;entryX=1;entryY=0.5;entryDx=0;entryDy=0;" edge="1" parent="M1Dd1jra3ZKJnvtL5Lh6-6" source="M1Dd1jra3ZKJnvtL5Lh6-53" target="M1Dd1jra3ZKJnvtL5Lh6-56">
          <mxGeometry relative="1" as="geometry" />
        </mxCell>
        <mxCell id="M1Dd1jra3ZKJnvtL5Lh6-66" style="edgeStyle=orthogonalEdgeStyle;rounded=0;orthogonalLoop=1;jettySize=auto;html=1;exitX=0;exitY=0.25;exitDx=0;exitDy=0;entryX=1;entryY=0.25;entryDx=0;entryDy=0;" edge="1" parent="M1Dd1jra3ZKJnvtL5Lh6-6" source="M1Dd1jra3ZKJnvtL5Lh6-61" target="M1Dd1jra3ZKJnvtL5Lh6-59">
          <mxGeometry relative="1" as="geometry">
            <mxPoint x="180" y="1050" as="targetPoint" />
          </mxGeometry>
        </mxCell>
        <mxCell id="M1Dd1jra3ZKJnvtL5Lh6-68" style="edgeStyle=orthogonalEdgeStyle;rounded=0;orthogonalLoop=1;jettySize=auto;html=1;exitX=1;exitY=0.25;exitDx=0;exitDy=0;entryX=0;entryY=0.25;entryDx=0;entryDy=0;" edge="1" parent="M1Dd1jra3ZKJnvtL5Lh6-6" source="M1Dd1jra3ZKJnvtL5Lh6-58" target="M1Dd1jra3ZKJnvtL5Lh6-60">
          <mxGeometry relative="1" as="geometry" />
        </mxCell>
        <mxCell id="M1Dd1jra3ZKJnvtL5Lh6-74" style="edgeStyle=orthogonalEdgeStyle;rounded=0;orthogonalLoop=1;jettySize=auto;html=1;exitX=1;exitY=0.5;exitDx=0;exitDy=0;entryX=1;entryY=0.5;entryDx=0;entryDy=0;" edge="1" parent="M1Dd1jra3ZKJnvtL5Lh6-6" source="M1Dd1jra3ZKJnvtL5Lh6-24" target="M1Dd1jra3ZKJnvtL5Lh6-5">
          <mxGeometry relative="1" as="geometry" />
        </mxCell>
        <mxCell id="M1Dd1jra3ZKJnvtL5Lh6-8" value="system" style="swimlane;startSize=20;" vertex="1" parent="M1Dd1jra3ZKJnvtL5Lh6-6">
          <mxGeometry x="290" y="20" width="380" height="1100" as="geometry" />
        </mxCell>
        <mxCell id="M1Dd1jra3ZKJnvtL5Lh6-27" style="edgeStyle=orthogonalEdgeStyle;rounded=0;orthogonalLoop=1;jettySize=auto;html=1;exitX=0.5;exitY=1;exitDx=0;exitDy=0;" edge="1" parent="M1Dd1jra3ZKJnvtL5Lh6-8" source="M1Dd1jra3ZKJnvtL5Lh6-20" target="M1Dd1jra3ZKJnvtL5Lh6-25">
          <mxGeometry relative="1" as="geometry" />
        </mxCell>
        <mxCell id="M1Dd1jra3ZKJnvtL5Lh6-20" value="validate credentials" style="rounded=1;whiteSpace=wrap;html=1;" vertex="1" parent="M1Dd1jra3ZKJnvtL5Lh6-8">
          <mxGeometry x="120" y="310" width="120" height="45" as="geometry" />
        </mxCell>
        <mxCell id="M1Dd1jra3ZKJnvtL5Lh6-23" value="prompt leave selection" style="rounded=1;whiteSpace=wrap;html=1;" vertex="1" parent="M1Dd1jra3ZKJnvtL5Lh6-8">
          <mxGeometry x="10" y="395" width="100" height="50" as="geometry" />
        </mxCell>
        <mxCell id="M1Dd1jra3ZKJnvtL5Lh6-36" style="edgeStyle=orthogonalEdgeStyle;rounded=0;orthogonalLoop=1;jettySize=auto;html=1;exitX=0;exitY=0.5;exitDx=0;exitDy=0;entryX=1;entryY=0.5;entryDx=0;entryDy=0;" edge="1" parent="M1Dd1jra3ZKJnvtL5Lh6-8" source="M1Dd1jra3ZKJnvtL5Lh6-25" target="M1Dd1jra3ZKJnvtL5Lh6-23">
          <mxGeometry relative="1" as="geometry" />
        </mxCell>
        <mxCell id="M1Dd1jra3ZKJnvtL5Lh6-25" value="" style="rhombus;whiteSpace=wrap;html=1;" vertex="1" parent="M1Dd1jra3ZKJnvtL5Lh6-8">
          <mxGeometry x="140" y="380" width="80" height="80" as="geometry" />
        </mxCell>
        <mxCell id="M1Dd1jra3ZKJnvtL5Lh6-39" value="store leave reason" style="rounded=1;whiteSpace=wrap;html=1;" vertex="1" parent="M1Dd1jra3ZKJnvtL5Lh6-8">
          <mxGeometry x="120" y="490" width="120" height="50" as="geometry" />
        </mxCell>
        <mxCell id="M1Dd1jra3ZKJnvtL5Lh6-48" style="edgeStyle=orthogonalEdgeStyle;rounded=0;orthogonalLoop=1;jettySize=auto;html=1;exitX=0.5;exitY=1;exitDx=0;exitDy=0;entryX=0.5;entryY=0;entryDx=0;entryDy=0;" edge="1" parent="M1Dd1jra3ZKJnvtL5Lh6-8" source="M1Dd1jra3ZKJnvtL5Lh6-43" target="M1Dd1jra3ZKJnvtL5Lh6-44">
          <mxGeometry relative="1" as="geometry" />
        </mxCell>
        <mxCell id="M1Dd1jra3ZKJnvtL5Lh6-43" value="prompt leave duration" style="rounded=1;whiteSpace=wrap;html=1;" vertex="1" parent="M1Dd1jra3ZKJnvtL5Lh6-8">
          <mxGeometry x="120" y="580" width="120" height="50" as="geometry" />
        </mxCell>
        <mxCell id="M1Dd1jra3ZKJnvtL5Lh6-44" value="validate leave duration" style="rounded=1;whiteSpace=wrap;html=1;" vertex="1" parent="M1Dd1jra3ZKJnvtL5Lh6-8">
          <mxGeometry x="110" y="660" width="120" height="50" as="geometry" />
        </mxCell>
        <mxCell id="M1Dd1jra3ZKJnvtL5Lh6-54" style="edgeStyle=orthogonalEdgeStyle;rounded=0;orthogonalLoop=1;jettySize=auto;html=1;exitX=1;exitY=0.5;exitDx=0;exitDy=0;entryX=0.5;entryY=0;entryDx=0;entryDy=0;" edge="1" parent="M1Dd1jra3ZKJnvtL5Lh6-8" source="M1Dd1jra3ZKJnvtL5Lh6-51" target="M1Dd1jra3ZKJnvtL5Lh6-52">
          <mxGeometry relative="1" as="geometry" />
        </mxCell>
        <mxCell id="M1Dd1jra3ZKJnvtL5Lh6-55" style="edgeStyle=orthogonalEdgeStyle;rounded=0;orthogonalLoop=1;jettySize=auto;html=1;exitX=0;exitY=0.5;exitDx=0;exitDy=0;entryX=0.5;entryY=0;entryDx=0;entryDy=0;" edge="1" parent="M1Dd1jra3ZKJnvtL5Lh6-8" source="M1Dd1jra3ZKJnvtL5Lh6-51" target="M1Dd1jra3ZKJnvtL5Lh6-53">
          <mxGeometry relative="1" as="geometry" />
        </mxCell>
        <mxCell id="M1Dd1jra3ZKJnvtL5Lh6-51" value="" style="rhombus;whiteSpace=wrap;html=1;" vertex="1" parent="M1Dd1jra3ZKJnvtL5Lh6-8">
          <mxGeometry x="120" y="740" width="80" height="60" as="geometry" />
        </mxCell>
        <mxCell id="M1Dd1jra3ZKJnvtL5Lh6-52" value="re-enter duration" style="rounded=1;whiteSpace=wrap;html=1;" vertex="1" parent="M1Dd1jra3ZKJnvtL5Lh6-8">
          <mxGeometry x="210" y="800" width="100" height="50" as="geometry" />
        </mxCell>
        <mxCell id="M1Dd1jra3ZKJnvtL5Lh6-53" value="prompt leave submission" style="rounded=1;whiteSpace=wrap;html=1;" vertex="1" parent="M1Dd1jra3ZKJnvtL5Lh6-8">
          <mxGeometry x="20" y="800" width="100" height="50" as="geometry" />
        </mxCell>
        <mxCell id="M1Dd1jra3ZKJnvtL5Lh6-24" value="invalid credentials" style="rounded=1;whiteSpace=wrap;html=1;" vertex="1" parent="M1Dd1jra3ZKJnvtL5Lh6-8">
          <mxGeometry x="260" y="395" width="110" height="50" as="geometry" />
        </mxCell>
        <mxCell id="M1Dd1jra3ZKJnvtL5Lh6-34" style="edgeStyle=orthogonalEdgeStyle;rounded=0;orthogonalLoop=1;jettySize=auto;html=1;exitX=1;exitY=0.5;exitDx=0;exitDy=0;" edge="1" parent="M1Dd1jra3ZKJnvtL5Lh6-8" source="M1Dd1jra3ZKJnvtL5Lh6-25" target="M1Dd1jra3ZKJnvtL5Lh6-24">
          <mxGeometry relative="1" as="geometry" />
        </mxCell>
        <mxCell id="M1Dd1jra3ZKJnvtL5Lh6-62" style="edgeStyle=orthogonalEdgeStyle;rounded=0;orthogonalLoop=1;jettySize=auto;html=1;exitX=0.5;exitY=1;exitDx=0;exitDy=0;entryX=0.5;entryY=0;entryDx=0;entryDy=0;" edge="1" parent="M1Dd1jra3ZKJnvtL5Lh6-8" source="M1Dd1jra3ZKJnvtL5Lh6-60" target="M1Dd1jra3ZKJnvtL5Lh6-61">
          <mxGeometry relative="1" as="geometry" />
        </mxCell>
        <mxCell id="M1Dd1jra3ZKJnvtL5Lh6-60" value="request for update" style="rounded=1;whiteSpace=wrap;html=1;" vertex="1" parent="M1Dd1jra3ZKJnvtL5Lh6-8">
          <mxGeometry x="100" y="920" width="100" height="40" as="geometry" />
        </mxCell>
        <mxCell id="M1Dd1jra3ZKJnvtL5Lh6-61" value="update status" style="rounded=1;whiteSpace=wrap;html=1;" vertex="1" parent="M1Dd1jra3ZKJnvtL5Lh6-8">
          <mxGeometry x="100" y="990" width="100" height="40" as="geometry" />
        </mxCell>
        <mxCell id="M1Dd1jra3ZKJnvtL5Lh6-73" style="edgeStyle=orthogonalEdgeStyle;rounded=0;orthogonalLoop=1;jettySize=auto;html=1;exitX=1;exitY=0.5;exitDx=0;exitDy=0;entryX=1;entryY=0.5;entryDx=0;entryDy=0;" edge="1" parent="M1Dd1jra3ZKJnvtL5Lh6-8" source="M1Dd1jra3ZKJnvtL5Lh6-52" target="M1Dd1jra3ZKJnvtL5Lh6-43">
          <mxGeometry relative="1" as="geometry">
            <mxPoint x="260" y="600" as="targetPoint" />
          </mxGeometry>
        </mxCell>
        <mxCell id="M1Dd1jra3ZKJnvtL5Lh6-9" value="admin" style="swimlane;startSize=20;" vertex="1" parent="M1Dd1jra3ZKJnvtL5Lh6-6">
          <mxGeometry x="670" y="20" width="310" height="1100" as="geometry" />
        </mxCell>
        <mxCell id="M1Dd1jra3ZKJnvtL5Lh6-69" value="update status accept/reject" style="shape=mxgraph.sysml.accEvent;flipH=1;whiteSpace=wrap;align=center;" vertex="1" parent="M1Dd1jra3ZKJnvtL5Lh6-9">
          <mxGeometry x="140" y="920" width="140" height="40" as="geometry" />
        </mxCell>
        <mxCell id="M1Dd1jra3ZKJnvtL5Lh6-77" style="edgeStyle=orthogonalEdgeStyle;rounded=0;orthogonalLoop=1;jettySize=auto;html=1;exitX=1;exitY=0.5;exitDx=0;exitDy=0;exitPerimeter=0;entryX=1;entryY=0.5;entryDx=0;entryDy=0;" edge="1" parent="M1Dd1jra3ZKJnvtL5Lh6-6" source="M1Dd1jra3ZKJnvtL5Lh6-69" target="M1Dd1jra3ZKJnvtL5Lh6-60">
          <mxGeometry relative="1" as="geometry" />
        </mxCell>
        <mxCell id="M1Dd1jra3ZKJnvtL5Lh6-50" style="edgeStyle=orthogonalEdgeStyle;rounded=0;orthogonalLoop=1;jettySize=auto;html=1;exitX=0.5;exitY=1;exitDx=0;exitDy=0;" edge="1" parent="1" source="M1Dd1jra3ZKJnvtL5Lh6-44">
          <mxGeometry relative="1" as="geometry">
            <mxPoint x="580" y="740" as="targetPoint" />
          </mxGeometry>
        </mxCell>
      </root>
    </mxGraphModel>
  </diagram>
</mxfile>
